<svg xmlns="http://www.w3.org/2000/svg" viewBox="0 0 256 384.94963">
  <title>Spaceship</title>
  <path d="M180.14847,322.37055V75.85215C180.14847,28.44416,128,0,128,0S75.85152,28.44416,75.85152,75.85215v246.5184Z" fill="#cce8f9"/>
  <path d="M180.14847,322.37055V75.85215C180.14847,28.44416,128,0,128,0V322.37055Z" fill="#94c7eb"/>
  <path d="M146.9632,75.85215A18.96336,18.96336,0,0,0,128,56.889h0A18.96377,18.96377,0,0,0,109.0368,75.85215Z" fill="#1f2e3b"/>
  <rect x="113.77792" y="227.55582" width="28.44417" height="66.37055" fill="#1f2e3b"/>
  <rect x="75.85152" y="293.92639" width="104.29632" height="28.44416" fill="#7cb8e5"/>
  <rect x="128" y="293.92639" width="52.14848" height="28.44416" fill="#5a8bb0"/>
  <path d="M137.20174,322.37057h-9.20187v43.66329a74.92348,74.92348,0,0,0,21.47337,18.91576s30.67526-16.733,30.67526-44.6185V322.37106H137.20174Zm12.28508,36.5462c-4.265-4.10172-8.512-9.56065-9.57572-15.68634h19.12732C157.9812,349.3727,153.75386,354.82006,149.48682,358.91677Z" fill="#f0542c"/>
  <path d="M149.48682,358.91675c4.267-4.09668,8.49438-9.54407,9.55157-15.68634H139.91107C140.97485,349.35614,145.2218,354.81506,149.48682,358.91675Z" fill="#feda46"/>
  <path d="M118.79827,322.37106H75.8515v17.96006c0,27.8855,30.67526,44.6185,30.67526,44.6185a74.92348,74.92348,0,0,0,21.47337-18.91576V322.37057h-9.20187ZM96.96159,343.23043h19.12732c-1.06375,6.12569-5.31069,11.58462-9.57572,15.68634C102.24615,354.82006,98.0188,349.3727,96.96159,343.23043Z" fill="#f89821"/>
  <path d="M106.51318,358.91675c4.265-4.10168,8.512-9.56061,9.57574-15.68634H96.96161C98.0188,349.37268,102.24615,354.82007,106.51318,358.91675Z" fill="#feda46"/>
  <polygon points="227.556 240.628 227.556 182.518 180.148 146.963 180.148 293.926 256 293.926 256 269.072 227.556 240.628" fill="#1f2e3b"/>
  <polygon points="28.444 182.518 28.444 240.628 0 269.072 0 293.926 75.852 293.926 75.852 146.963 28.444 182.518" fill="#3d5e77"/>
</svg>
