<svg xmlns="http://www.w3.org/2000/svg" viewBox="0 0 256 322.37055">
  <title>Spaceship</title>
  <path d="M180.14847,322.37055V75.85215C180.14847,28.44416,128,0,128,0S75.85152,28.44416,75.85152,75.85215v246.5184Z" fill="#cce8f9"/>
  <path d="M180.14847,322.37055V75.85215C180.14847,28.44416,128,0,128,0V322.37055Z" fill="#94c7eb"/>
  <path d="M146.9632,75.85215A18.96336,18.96336,0,0,0,128,56.889h0A18.96377,18.96377,0,0,0,109.0368,75.85215Z" fill="#1f2e3b"/>
  <rect x="113.77792" y="227.55582" width="28.44417" height="66.37055" fill="#1f2e3b"/>
  <rect x="75.85152" y="293.92639" width="104.29632" height="28.44416" fill="#7cb8e5"/>
  <rect x="128" y="293.92639" width="52.14848" height="28.44416" fill="#5a8bb0"/>
  <polygon points="227.556 240.628 227.556 182.518 180.148 146.963 180.148 293.926 256 293.926 256 269.072 227.556 240.628" fill="#1f2e3b"/>
  <polygon points="28.444 182.518 28.444 240.628 0 269.072 0 293.926 75.852 293.926 75.852 146.963 28.444 182.518" fill="#3d5e77"/>
</svg>
